<?xml version="1.0" standalone="no"?>
<!DOCTYPE svg PUBLIC "-//W3C//DTD SVG 20010904//EN"
 "http://www.w3.org/TR/2001/REC-SVG-20010904/DTD/svg10.dtd">
<svg version="1.0" xmlns="http://www.w3.org/2000/svg"
 width="480.000000pt" height="480.000000pt" viewBox="0 0 480.000000 480.000000"
 preserveAspectRatio="xMidYMid meet">

<g transform="translate(0.000000,480.000000) scale(0.100000,-0.100000)"
fill="#000000" stroke="none">
<path d="M3425 4074 c-171 -17 -294 -51 -419 -116 -122 -65 -246 -192 -309
-318 -92 -184 -108 -282 -116 -705 l-6 -330 -298 -1 c-248 0 -300 -3 -308 -15
-11 -18 -12 -629 0 -648 7 -11 71 -15 307 -20 l299 -6 5 -932 c3 -512 8 -934
12 -938 10 -10 645 -12 655 -2 4 5 10 428 13 940 l5 932 297 5 c193 3 301 9
308 16 9 9 78 443 97 612 l6 52 -194 3 c-107 1 -261 2 -344 2 -82 0 -156 1
-162 3 -20 3 -18 499 2 575 27 104 82 172 175 216 54 25 61 26 315 31 143 3
266 9 273 13 9 6 12 76 12 291 0 210 -3 287 -12 299 -9 12 -38 20 -98 27 -93
11 -451 21 -515 14z"/>
</g>
</svg>
