<?xml version="1.0" standalone="no"?>
<!DOCTYPE svg PUBLIC "-//W3C//DTD SVG 20010904//EN"
 "http://www.w3.org/TR/2001/REC-SVG-20010904/DTD/svg10.dtd">
<svg version="1.0" xmlns="http://www.w3.org/2000/svg"
 width="256.000000pt" height="256.000000pt" viewBox="0 0 256.000000 256.000000"
 preserveAspectRatio="xMidYMid meet">

<g transform="translate(0.000000,256.000000) scale(0.100000,-0.100000)"
fill="#000000" stroke="none">
<path d="M95 2360 c-19 -21 -19 -25 59 -418 44 -218 85 -409 93 -424 7 -15 25
-35 39 -44 14 -10 195 -51 427 -98 315 -63 402 -84 402 -96 0 -12 -87 -33
-402 -96 -232 -47 -413 -88 -427 -98 -14 -9 -32 -29 -39 -44 -8 -15 -49 -206
-93 -424 -78 -393 -78 -397 -59 -418 14 -15 26 -19 45 -15 46 12 2305 1057
2325 1076 19 19 19 19 0 38 -20 19 -2279 1064 -2325 1076 -19 4 -31 0 -45 -15z"/>
</g>
</svg>
